<svg data-v-423bf9ae="" xmlns="http://www.w3.org/2000/svg" viewBox="0 0 497 92" class="iconLeftSlogan"><!----><!----><!----><g data-v-423bf9ae="" id="8c5d7f9e-0c9a-4fa7-b9d1-c1b48ae64b39" fill="#090A35" transform="matrix(4.724409165004871,0,0,4.724409165004871,109.20836807164642,-19.32283420575755)"><path d="M4.28 14.11Q3.14 14.11 2.26 13.66Q1.39 13.22 0.90 12.40Q0.42 11.58 0.42 10.50L0.42 10.50L0.42 7.67Q0.42 6.61 0.90 5.80Q1.39 4.98 2.26 4.54Q3.14 4.09 4.28 4.09L4.28 4.09Q5.43 4.09 6.31 4.51Q7.18 4.93 7.67 5.69Q8.15 6.45 8.15 7.46L8.15 7.46Q8.15 7.59 7.90 7.62L7.90 7.62L5.80 7.76L5.73 7.76Q5.52 7.76 5.52 7.69L5.52 7.69L5.52 7.60Q5.52 7.03 5.18 6.68Q4.84 6.34 4.28 6.34L4.28 6.34Q3.72 6.34 3.39 6.68Q3.05 7.03 3.05 7.60L3.05 7.60L3.05 10.61Q3.05 11.17 3.39 11.52Q3.72 11.86 4.28 11.86L4.28 11.86Q4.84 11.86 5.18 11.52Q5.52 11.17 5.52 10.61L5.52 10.61Q5.52 10.54 5.59 10.49Q5.67 10.44 5.80 10.46L5.80 10.46L7.90 10.57Q8.15 10.58 8.15 10.64L8.15 10.64L8.15 10.71Q8.15 11.72 7.67 12.49Q7.18 13.26 6.31 13.69Q5.43 14.11 4.28 14.11L4.28 14.11ZM9.14 16.79Q9.04 16.79 9.04 16.52L9.04 16.52L9.04 14.90Q9.04 14.77 9.07 14.70Q9.10 14.63 9.13 14.63L9.13 14.63L9.20 14.63Q10.11 14.63 10.49 14.53Q10.88 14.42 10.93 14.07L10.93 14.07Q10.95 14.01 10.92 13.93L10.92 13.93L8.75 7.03Q8.74 6.99 8.74 6.93L8.74 6.93Q8.74 6.72 8.97 6.72L8.97 6.72L11.21 6.72Q11.47 6.72 11.51 6.96L11.51 6.96L12.21 10.16Q12.22 10.23 12.27 10.23Q12.32 10.22 12.35 10.15L12.35 10.15L13.01 6.96Q13.05 6.72 13.30 6.72L13.30 6.72L15.55 6.72Q15.69 6.72 15.76 6.80Q15.82 6.89 15.78 7.03L15.78 7.03L13.51 14.03Q13.15 15.11 12.74 15.67Q12.33 16.23 11.53 16.51Q10.72 16.79 9.24 16.79L9.24 16.79L9.14 16.79ZM23.49 8.54Q23.80 9.32 23.80 10.33L23.80 10.33Q23.80 11.20 23.59 11.90L23.59 11.90Q23.28 12.92 22.53 13.52Q21.78 14.11 20.85 14.11L20.85 14.11Q19.81 14.11 19.26 13.41L19.26 13.41Q19.22 13.34 19.18 13.36Q19.14 13.37 19.14 13.44L19.14 13.44L19.14 13.73Q19.14 14 18.87 14L18.87 14L16.77 14Q16.51 14 16.51 13.73L16.51 13.73L16.51 4.47Q16.51 4.20 16.77 4.20L16.77 4.20L18.87 4.20Q19.14 4.20 19.14 4.47L19.14 4.47L19.14 7.14Q19.14 7.21 19.17 7.23Q19.21 7.25 19.26 7.20L19.26 7.20Q19.74 6.61 20.73 6.61L20.73 6.61Q21.73 6.61 22.44 7.15Q23.16 7.69 23.49 8.54L23.49 8.54ZM20.83 11.40Q21.04 10.99 21.04 10.37L21.04 10.37Q21.04 9.72 20.83 9.32L20.83 9.32Q20.59 8.86 20.09 8.86L20.09 8.86Q19.61 8.86 19.36 9.30L19.36 9.30Q19.14 9.70 19.14 10.37L19.14 10.37Q19.14 10.99 19.35 11.38L19.35 11.38Q19.60 11.86 20.09 11.86L20.09 11.86Q20.58 11.86 20.83 11.40L20.83 11.40ZM28.24 11.89Q28.66 11.89 29.02 11.78Q29.39 11.68 29.62 11.49L29.62 11.49Q29.74 11.41 29.81 11.41L29.81 11.41Q29.90 11.41 29.99 11.52L29.99 11.52L30.94 12.84Q31.01 12.95 31.01 13.01L31.01 13.01Q31.01 13.10 30.91 13.20L30.91 13.20Q30.41 13.66 29.69 13.89Q28.97 14.11 28.14 14.11L28.14 14.11Q27.09 14.11 26.28 13.74Q25.48 13.37 24.98 12.68L24.98 12.68Q24.28 11.70 24.28 10.30L24.28 10.30Q24.28 9.70 24.43 9.13L24.43 9.13Q24.75 7.99 25.70 7.30Q26.64 6.61 27.89 6.61L27.89 6.61Q29.33 6.61 30.23 7.54Q31.12 8.47 31.40 10.08L31.40 10.08Q31.47 10.42 31.49 10.75L31.49 10.75Q31.49 11.02 31.22 11.02L31.22 11.02L27.06 11.02Q26.95 11.02 26.96 11.14L26.96 11.14L27.03 11.33Q27.30 11.89 28.24 11.89L28.24 11.89ZM27.83 8.86Q27.26 8.86 27.03 9.42L27.03 9.42L26.99 9.53L26.98 9.58Q26.98 9.66 27.09 9.66L27.09 9.66L28.60 9.66Q28.71 9.66 28.71 9.58L28.71 9.58Q28.71 9.53 28.69 9.49Q28.67 9.45 28.66 9.42L28.66 9.42Q28.42 8.86 27.83 8.86L27.83 8.86ZM36.27 6.62Q36.71 6.62 36.99 6.78L36.99 6.78Q37.17 6.87 37.13 7.11L37.13 7.11L36.79 9.17Q36.75 9.41 36.48 9.35L36.48 9.35Q36.33 9.31 36.11 9.31L36.11 9.31Q35.91 9.31 35.70 9.35L35.70 9.35Q35.34 9.42 35.08 9.65Q34.82 9.88 34.82 10.28L34.82 10.28L34.82 13.73Q34.82 14 34.55 14L34.55 14L32.45 14Q32.19 14 32.19 13.73L32.19 13.73L32.19 6.99Q32.19 6.72 32.45 6.72L32.45 6.72L34.55 6.72Q34.82 6.72 34.82 6.99L34.82 6.99L34.82 7.18Q34.82 7.25 34.85 7.28Q34.89 7.31 34.93 7.25L34.93 7.25Q35.45 6.62 36.27 6.62L36.27 6.62ZM41.45 14.11Q40.32 14.11 39.45 13.73Q38.58 13.34 38.11 12.63Q37.63 11.91 37.63 10.98L37.63 10.98L37.63 10.84Q37.63 10.57 37.90 10.57L37.90 10.57L39.96 10.57Q40.22 10.57 40.22 10.71L40.22 10.71L40.22 10.86Q40.22 11.24 40.63 11.55Q41.03 11.86 41.65 11.86L41.65 11.86Q42.17 11.86 42.39 11.64Q42.62 11.42 42.62 11.16L42.62 11.16Q42.62 10.85 42.34 10.70Q42.06 10.54 41.31 10.32L41.31 10.32L40.91 10.21Q39.52 9.79 38.58 9.09Q37.65 8.39 37.65 7.06L37.65 7.06Q37.65 6.17 38.12 5.49Q38.60 4.82 39.43 4.45Q40.26 4.09 41.30 4.09L41.30 4.09Q42.39 4.09 43.28 4.49Q44.17 4.90 44.68 5.64Q45.19 6.38 45.19 7.34L45.19 7.34L45.19 7.41Q45.19 7.67 44.93 7.67L44.93 7.67L42.87 7.67Q42.60 7.67 42.60 7.56L42.60 7.56L42.60 7.45Q42.60 7.03 42.22 6.68Q41.85 6.34 41.20 6.34L41.20 6.34Q40.75 6.34 40.49 6.52Q40.24 6.71 40.24 7.03L40.24 7.03Q40.24 7.28 40.42 7.46Q40.61 7.63 41.01 7.79Q41.40 7.95 42.21 8.20L42.21 8.20Q42.32 8.25 43.20 8.50Q44.07 8.76 44.66 9.44Q45.25 10.12 45.25 11.09L45.25 11.09Q45.25 12.00 44.77 12.68Q44.30 13.37 43.44 13.74Q42.57 14.11 41.45 14.11L41.45 14.11ZM53.21 8.82Q53.42 9.52 53.42 10.39L53.42 10.39Q53.42 11.40 53.12 12.18L53.12 12.18Q52.78 13.03 52.07 13.57Q51.35 14.11 50.36 14.11L50.36 14.11Q49.36 14.11 48.89 13.52L48.89 13.52Q48.83 13.47 48.80 13.49Q48.76 13.51 48.76 13.58L48.76 13.58L48.76 16.25Q48.76 16.52 48.50 16.52L48.50 16.52L46.40 16.52Q46.13 16.52 46.13 16.25L46.13 16.25L46.13 6.99Q46.13 6.72 46.40 6.72L46.40 6.72L48.50 6.72Q48.76 6.72 48.76 6.99L48.76 6.99L48.76 7.28Q48.76 7.35 48.80 7.36Q48.85 7.38 48.89 7.31L48.89 7.31Q49.43 6.61 50.47 6.61L50.47 6.61Q51.41 6.61 52.16 7.20Q52.91 7.80 53.21 8.82L53.21 8.82ZM50.46 11.40Q50.67 10.99 50.67 10.35L50.67 10.35Q50.67 9.72 50.46 9.32L50.46 9.32Q50.20 8.86 49.71 8.86L49.71 8.86Q49.22 8.86 48.97 9.34L48.97 9.34Q48.76 9.73 48.76 10.35L48.76 10.35Q48.76 11.02 48.99 11.42L48.99 11.42Q49.24 11.86 49.71 11.86L49.71 11.86Q50.22 11.86 50.46 11.40L50.46 11.40ZM58.39 6.61Q59.09 6.61 59.65 6.92Q60.21 7.22 60.54 7.82Q60.87 8.41 60.87 9.23L60.87 9.23L60.87 13.73Q60.87 14 60.61 14L60.61 14L58.51 14Q58.24 14 58.24 13.73L58.24 13.73L58.24 9.80Q58.24 9.38 58.02 9.12Q57.81 8.86 57.46 8.86L57.46 8.86Q57.09 8.86 56.88 9.12Q56.66 9.38 56.66 9.80L56.66 9.80L56.66 13.73Q56.66 14 56.39 14L56.39 14L54.29 14Q54.03 14 54.03 13.73L54.03 13.73L54.03 4.47Q54.03 4.20 54.29 4.20L54.29 4.20L56.39 4.20Q56.66 4.20 56.66 4.47L56.66 4.47L56.66 7.35Q56.66 7.42 56.69 7.44Q56.73 7.46 56.77 7.41L56.77 7.41Q57.30 6.61 58.39 6.61L58.39 6.61ZM65.59 11.89Q66.01 11.89 66.37 11.78Q66.74 11.68 66.98 11.49L66.98 11.49Q67.09 11.41 67.16 11.41L67.16 11.41Q67.26 11.41 67.34 11.52L67.34 11.52L68.29 12.84Q68.36 12.95 68.36 13.01L68.36 13.01Q68.36 13.10 68.26 13.20L68.26 13.20Q67.76 13.66 67.04 13.89Q66.32 14.11 65.49 14.11L65.49 14.11Q64.44 14.11 63.64 13.74Q62.83 13.37 62.33 12.68L62.33 12.68Q61.63 11.70 61.63 10.30L61.63 10.30Q61.63 9.70 61.78 9.13L61.78 9.13Q62.10 7.99 63.05 7.30Q63.99 6.61 65.24 6.61L65.24 6.61Q66.68 6.61 67.58 7.54Q68.47 8.47 68.75 10.08L68.75 10.08Q68.82 10.42 68.84 10.75L68.84 10.75Q68.84 11.02 68.57 11.02L68.57 11.02L64.41 11.02Q64.30 11.02 64.32 11.14L64.32 11.14L64.39 11.33Q64.65 11.89 65.59 11.89L65.59 11.89ZM65.18 8.86Q64.61 8.86 64.39 9.42L64.39 9.42L64.34 9.53L64.33 9.58Q64.33 9.66 64.44 9.66L64.44 9.66L65.95 9.66Q66.07 9.66 66.07 9.58L66.07 9.58Q66.07 9.53 66.05 9.49Q66.02 9.45 66.01 9.42L66.01 9.42Q65.77 8.86 65.18 8.86L65.18 8.86ZM73.63 6.62Q74.06 6.62 74.34 6.78L74.34 6.78Q74.52 6.87 74.48 7.11L74.48 7.11L74.14 9.17Q74.10 9.41 73.84 9.35L73.84 9.35Q73.68 9.31 73.46 9.31L73.46 9.31Q73.26 9.31 73.05 9.35L73.05 9.35Q72.69 9.42 72.43 9.65Q72.17 9.88 72.17 10.28L72.17 10.28L72.17 13.73Q72.17 14 71.90 14L71.90 14L69.80 14Q69.54 14 69.54 13.73L69.54 13.73L69.54 6.99Q69.54 6.72 69.80 6.72L69.80 6.72L71.90 6.72Q72.17 6.72 72.17 6.99L72.17 6.99L72.17 7.18Q72.17 7.25 72.21 7.28Q72.24 7.31 72.28 7.25L72.28 7.25Q72.80 6.62 73.63 6.62L73.63 6.62ZM78.67 11.89Q79.09 11.89 79.45 11.78Q79.81 11.68 80.05 11.49L80.05 11.49Q80.16 11.41 80.23 11.41L80.23 11.41Q80.33 11.41 80.42 11.52L80.42 11.52L81.37 12.84Q81.44 12.95 81.44 13.01L81.44 13.01Q81.44 13.10 81.34 13.20L81.34 13.20Q80.84 13.66 80.12 13.89Q79.39 14.11 78.57 14.11L78.57 14.11Q77.52 14.11 76.71 13.74Q75.91 13.37 75.40 12.68L75.40 12.68Q74.70 11.70 74.70 10.30L74.70 10.30Q74.70 9.70 74.86 9.13L74.86 9.13Q75.18 7.99 76.13 7.30Q77.07 6.61 78.32 6.61L78.32 6.61Q79.76 6.61 80.65 7.54Q81.55 8.47 81.83 10.08L81.83 10.08Q81.90 10.42 81.91 10.75L81.91 10.75Q81.91 11.02 81.65 11.02L81.65 11.02L77.49 11.02Q77.38 11.02 77.39 11.14L77.39 11.14L77.46 11.33Q77.73 11.89 78.67 11.89L78.67 11.89ZM78.26 8.86Q77.69 8.86 77.46 9.42L77.46 9.42L77.42 9.53L77.41 9.58Q77.41 9.66 77.52 9.66L77.52 9.66L79.03 9.66Q79.14 9.66 79.14 9.58L79.14 9.58Q79.14 9.53 79.12 9.49Q79.10 9.45 79.09 9.42L79.09 9.42Q78.85 8.86 78.26 8.86L78.26 8.86Z"></path></g><defs data-v-423bf9ae=""><linearGradient data-v-423bf9ae="" gradientTransform="rotate(25)" id="562e4fd5-6d96-483c-8ff0-210ee0d1b47a" x1="0%" y1="0%" x2="100%" y2="0%"><stop data-v-423bf9ae="" offset="0%" style="stop-color: rgb(24, 27, 128); stop-opacity: 1;"></stop><stop data-v-423bf9ae="" offset="100%" style="stop-color: rgb(24, 30, 217); stop-opacity: 1;"></stop></linearGradient></defs><g data-v-423bf9ae="" id="d88c23b5-ba0b-4c47-99e4-f111b3e9635d" transform="matrix(1.0080403645833333,0,0,1.0080403645833333,-4.638537291033813,-3.7614365644132093)" stroke="none" fill="url(#562e4fd5-6d96-483c-8ff0-210ee0d1b47a)"><circle cx="41.433" cy="40.48" r="8.025"></circle><circle cx="41.433" cy="58.92" r="8.027"></circle><circle cx="59.711" cy="58.92" r="8.027"></circle><circle cx="59.713" cy="40.481" r="8.027"></circle><ellipse transform="rotate(-170.607 26.652 41.108)" cx="26.652" cy="41.108" rx="5.106" ry="7.382"></ellipse><ellipse transform="rotate(-99.237 42.173 25.375)" cx="42.173" cy="25.375" rx="5.106" ry="7.381"></ellipse><path d="M25.065 24.195c2.469-2.497 5.81-3.194 7.467-1.557 1.655 1.636 1 4.986-1.468 7.483-2.47 2.498-5.81 3.195-7.468 1.56-1.656-1.637-.998-4.988 1.469-7.486z"></path><ellipse transform="rotate(99.388 42.1 73.663)" cx="42.099" cy="73.663" rx="5.106" ry="7.383"></ellipse><path d="M21.323 58.963c-.652-4.023 1.075-7.652 3.857-8.105 2.783-.453 5.572 2.442 6.228 6.466.65 4.025-1.072 7.654-3.856 8.107-2.785.45-5.571-2.443-6.229-6.468z"></path><ellipse transform="rotate(134.66 28.149 72.253)" cx="28.149" cy="72.253" rx="4.216" ry="6.357"></ellipse><path d="M79.534 59.126c-.668 4.023-3.462 6.91-6.244 6.45-2.783-.46-4.502-4.093-3.836-8.116.667-4.023 3.46-6.911 6.243-6.45 2.782.46 4.498 4.095 3.837 8.116zM59.795 79.067c-4.024.654-7.654-1.072-8.107-3.856-.454-2.783 2.442-5.572 6.465-6.226 4.027-.655 7.653 1.072 8.107 3.856.454 2.783-2.442 5.57-6.465 6.226zM76.08 75.205c-2.464 2.497-5.809 3.196-7.466 1.56-1.655-1.637-1-4.99 1.468-7.485 2.467-2.499 5.811-3.196 7.467-1.56 1.653 1.637.997 4.987-1.47 7.485zM59.88 20.699c4.023.666 6.912 3.46 6.451 6.243s-4.094 4.499-8.117 3.834c-4.022-.665-6.909-3.46-6.452-6.243.465-2.783 4.098-4.498 8.118-3.834z"></path><ellipse transform="rotate(-9.237 74.78 41.256)" cx="74.78" cy="41.256" rx="5.107" ry="7.382"></ellipse><ellipse transform="rotate(-45.353 72.997 27.149)" cx="72.997" cy="27.149" rx="4.215" ry="6.356"></ellipse><ellipse transform="rotate(-135.348 20.3 19.377)" cx="20.301" cy="19.377" rx="2.155" ry="4.69"></ellipse><path d="M12.486 41.596c.504-3.636 2.464-6.368 4.382-6.102 1.917.264 3.064 3.426 2.56 7.06-.5 3.634-2.461 6.367-4.379 6.102-1.918-.266-3.066-3.426-2.563-7.06zM42.496 11.552c3.609-.677 6.82.317 7.178 2.218.358 1.904-2.277 3.994-5.882 4.67-3.61.678-6.822-.317-7.178-2.218-.357-1.901 2.275-3.993 5.882-4.67z"></path><ellipse transform="rotate(-120.841 30.053 16.89)" cx="30.053" cy="16.89" rx="3.065" ry="5.641"></ellipse><path d="M15.023 27.806c1.476-2.659 3.872-4.147 5.354-3.325 1.478.821 1.482 3.643.003 6.302-1.474 2.657-3.872 4.147-5.352 3.325-1.478-.822-1.484-3.644-.005-6.302z"></path><ellipse transform="rotate(134.674 20.368 80.015)" cx="20.368" cy="80.015" rx="2.155" ry="4.692"></ellipse><path d="M42.585 87.83c-3.633-.503-6.367-2.465-6.1-4.383.262-1.916 3.425-3.064 7.06-2.561 3.634.502 6.367 2.463 6.1 4.381-.265 1.917-3.423 3.063-7.06 2.562z"></path><ellipse transform="rotate(169.368 15.987 57.172)" cx="15.987" cy="57.172" rx="3.504" ry="6.644"></ellipse><ellipse transform="rotate(149.172 17.88 70.265)" cx="17.88" cy="70.265" rx="3.065" ry="5.641"></ellipse><ellipse transform="rotate(119.058 30.285 82.614)" cx="30.285" cy="82.614" rx="3.065" ry="5.506"></ellipse><path d="M82.378 81.538c-1.822 1.843-3.984 2.659-4.83 1.821-.847-.835-.056-3.007 1.764-4.85 1.822-1.844 3.984-2.66 4.828-1.823.85.836.06 3.01-1.762 4.852z"></path><ellipse transform="rotate(7.856 85.188 57.325)" cx="85.188" cy="57.325" rx="3.505" ry="6.644"></ellipse><ellipse transform="rotate(79.362 58.003 84.404)" cx="58.003" cy="84.404" rx="3.504" ry="6.645"></ellipse><path d="M72.666 85.143c-2.677 1.596-5.548 1.713-6.416.26-.865-1.454.597-3.928 3.271-5.523 2.677-1.597 5.548-1.713 6.417-.26.866 1.454-.598 3.925-3.272 5.523z"></path><ellipse transform="rotate(29.047 83.444 70.106)" cx="83.444" cy="70.106" rx="3.064" ry="5.506"></ellipse><ellipse transform="rotate(-45.358 80.779 19.386)" cx="80.779" cy="19.386" rx="2.155" ry="4.69"></ellipse><path d="M58.561 11.572c3.635.503 6.367 2.463 6.1 4.381-.262 1.917-3.424 3.065-7.06 2.563-3.634-.503-6.367-2.465-6.103-4.382.264-1.917 3.428-3.064 7.063-2.562z"></path><ellipse transform="rotate(-10.631 85.158 42.229)" cx="85.158" cy="42.229" rx="3.507" ry="6.643"></ellipse><ellipse transform="rotate(-30.853 83.265 29.137)" cx="83.265" cy="29.137" rx="3.065" ry="5.64"></ellipse><ellipse transform="rotate(-60.941 70.861 16.786)" cx="70.861" cy="16.786" rx="3.065" ry="5.507"></ellipse><ellipse transform="rotate(-172.142 8.519 43.269)" cx="8.519" cy="43.269" rx="2.515" ry="5.671"></ellipse><ellipse transform="rotate(-96.456 44.32 7.575)" cx="44.321" cy="7.575" rx="2.514" ry="5.67"></ellipse><ellipse transform="rotate(97.881 44.259 91.796)" cx="44.259" cy="91.796" rx="2.514" ry="5.669"></ellipse><ellipse transform="rotate(173.536 8.566 55.995)" cx="8.566" cy="55.995" rx="2.515" ry="5.671"></ellipse><path d="M95.116 56.476c-.427 3.102-1.89 5.463-3.268 5.273-1.374-.19-2.14-2.858-1.71-5.962.425-3.102 1.89-5.461 3.264-5.272 1.376.19 2.145 2.86 1.714 5.96zM57.108 94.325c-3.113.353-5.76-.48-5.918-1.86-.154-1.38 2.24-2.784 5.354-3.137 3.109-.353 5.759.48 5.915 1.859.157 1.379-2.239 2.784-5.351 3.138z"></path><ellipse transform="rotate(-82.157 56.887 7.604)" cx="56.887" cy="7.604" rx="2.514" ry="5.669"></ellipse><ellipse transform="rotate(-6.466 92.581 43.406)" cx="92.581" cy="43.406" rx="2.514" ry="5.67"></ellipse></g><!----><g data-v-423bf9ae="" id="9bb93771-e29d-46eb-b955-2555e73da5fc" fill="#090A35" transform="matrix(0.936549559643388,0,0,0.936549559643388,110.93037657519253,56.909386159427314)"><path d="M0.28 3.81L0.28 3.81Q0.28 3.65 0.44 3.61Q0.60 3.57 1.15 3.57L1.15 3.57Q1.23 3.57 1.53 3.58Q1.83 3.60 1.96 3.60L1.96 3.60Q2.11 3.60 2.53 3.59Q2.94 3.58 3.15 3.58L3.15 3.58Q3.85 3.58 3.85 3.75L3.85 3.75Q3.85 3.91 3.56 4.01Q3.26 4.12 3.26 4.24L3.26 4.24Q3.26 4.38 3.35 4.61Q3.44 4.83 3.54 4.97Q3.63 5.11 3.81 5.38Q3.99 5.64 4.02 5.70L4.02 5.70Q4.49 6.45 5.00 7.14Q5.52 7.83 5.59 7.83L5.59 7.83Q5.67 7.83 5.80 7.66Q5.92 7.50 6.15 7.13Q6.37 6.75 6.52 6.52L6.52 6.52Q6.57 6.45 6.73 6.22Q6.89 5.98 6.95 5.88Q7.01 5.78 7.14 5.58Q7.27 5.38 7.32 5.27Q7.38 5.17 7.46 5.02Q7.53 4.87 7.56 4.77Q7.59 4.68 7.59 4.59L7.59 4.59Q7.59 4.14 7.11 4.03L7.11 4.03Q7.06 4.02 6.95 4.00Q6.85 3.99 6.80 3.98Q6.75 3.96 6.68 3.93Q6.61 3.91 6.58 3.86Q6.55 3.81 6.55 3.74L6.55 3.74Q6.55 3.57 6.94 3.57L6.94 3.57Q7.01 3.57 7.20 3.58Q7.39 3.58 7.52 3.58L7.52 3.58Q7.84 3.58 8.29 3.59Q8.75 3.60 9.00 3.60L9.00 3.60Q9.69 3.60 9.69 3.81L9.69 3.81Q9.69 3.86 9.60 3.91Q9.52 3.95 9.37 4.02Q9.21 4.09 9.09 4.19L9.09 4.19Q8.51 4.63 7.40 6.31Q6.29 7.99 6.13 8.19L6.13 8.19Q5.91 8.47 5.85 8.81Q5.80 9.14 5.80 9.95L5.80 9.95Q5.80 10.14 5.80 10.73Q5.81 11.33 5.81 11.58L5.81 11.58L5.81 11.91Q5.81 12.38 5.97 12.64Q6.13 12.91 6.27 12.96Q6.41 13.01 6.55 13.01L6.55 13.01Q6.58 13.01 6.69 13.01Q6.80 13.02 6.83 13.02L6.83 13.02Q6.93 13.02 6.99 13.08Q7.04 13.15 7.04 13.22L7.04 13.22Q7.04 13.36 6.97 13.40Q6.90 13.44 6.71 13.44L6.71 13.44Q6.64 13.44 6.10 13.43Q5.56 13.43 5.31 13.43L5.31 13.43Q4.82 13.43 4.41 13.45Q4.00 13.48 3.77 13.48L3.77 13.48Q3.37 13.48 3.37 13.33L3.37 13.33Q3.37 13.20 3.45 13.15Q3.53 13.10 3.71 13.09Q3.89 13.08 3.98 13.05L3.98 13.05Q4.56 12.87 4.56 12.19L4.56 12.19Q4.56 12.11 4.57 11.92Q4.58 11.73 4.58 11.12Q4.59 10.50 4.59 9.35L4.59 9.35Q4.59 9.13 4.56 8.97Q4.52 8.81 4.47 8.65Q4.42 8.50 4.24 8.20Q4.05 7.91 3.86 7.64Q3.68 7.36 3.24 6.72Q2.80 6.08 2.39 5.46L2.39 5.46Q1.96 4.80 1.61 4.46Q1.26 4.12 1.07 4.05Q0.88 3.99 0.63 3.99L0.63 3.99Q0.28 3.99 0.28 3.81ZM17.18 8.69L17.18 8.69Q17.18 6.34 18.59 4.84Q20.01 3.33 22.60 3.33L22.60 3.33Q23.80 3.33 24.77 3.68Q25.73 4.03 26.29 4.54Q26.85 5.05 27.23 5.71Q27.61 6.37 27.75 6.92Q27.89 7.48 27.89 7.95L27.89 7.95Q27.89 9.86 27.15 11.16Q26.40 12.47 25.19 13.07Q23.98 13.66 22.40 13.66L22.40 13.66Q20.73 13.66 19.52 12.94Q18.31 12.21 17.74 11.10Q17.18 10.00 17.18 8.69ZM18.41 7.98L18.41 7.98Q18.41 8.54 18.56 9.19Q18.72 9.84 19.07 10.54Q19.42 11.23 19.91 11.78Q20.41 12.33 21.17 12.69Q21.94 13.05 22.85 13.05L22.85 13.05Q23.32 13.05 23.85 12.90Q24.37 12.75 24.89 12.45Q25.41 12.14 25.82 11.70Q26.22 11.26 26.48 10.62Q26.74 9.98 26.74 9.24L26.74 9.24Q26.74 6.71 25.41 5.30Q24.08 3.89 22.12 3.89L22.12 3.89Q20.58 3.89 19.49 4.93Q18.41 5.96 18.41 7.98ZM35.78 3.68L35.78 3.68Q35.78 3.61 35.80 3.58Q35.81 3.56 35.88 3.53Q35.95 3.50 36.11 3.50Q36.26 3.50 36.75 3.53Q37.24 3.56 37.69 3.56L37.69 3.56Q37.97 3.56 38.20 3.54Q38.43 3.53 39.00 3.53L39.00 3.53Q39.30 3.53 39.30 3.72L39.30 3.72Q39.30 3.85 39.20 3.88Q39.10 3.91 38.95 3.92Q38.81 3.93 38.66 4.02Q38.51 4.10 38.42 4.43Q38.32 4.76 38.32 5.32L38.32 5.32L38.32 5.71Q38.32 6.37 38.31 7.37Q38.30 8.37 38.30 8.74L38.30 8.74Q38.30 9.17 38.31 9.39Q38.32 9.62 38.35 10.04Q38.37 10.47 38.42 10.72Q38.47 10.96 38.58 11.32Q38.70 11.68 38.86 11.89Q39.02 12.10 39.26 12.35Q39.51 12.60 39.83 12.73Q40.15 12.87 40.59 12.96Q41.02 13.05 41.55 13.05L41.55 13.05Q42 13.05 42.25 13.03Q42.50 13.02 42.95 12.94Q43.39 12.87 43.64 12.72Q43.90 12.57 44.23 12.27Q44.56 11.97 44.74 11.54Q44.93 11.10 45.05 10.43Q45.18 9.76 45.18 8.90L45.18 8.90Q45.18 7.49 45.17 6.75Q45.16 6.01 45.16 5.94L45.16 5.94Q45.16 5.45 45.14 5.17Q45.12 4.89 45.00 4.55Q44.88 4.21 44.66 4.06L44.66 4.06Q44.52 3.96 44.30 3.93Q44.07 3.89 43.93 3.87Q43.79 3.85 43.79 3.75L43.79 3.75Q43.79 3.53 44.07 3.53L44.07 3.53Q44.16 3.53 44.62 3.54Q45.08 3.56 45.15 3.56L45.15 3.56Q45.49 3.56 45.86 3.54Q46.24 3.51 46.34 3.51L46.34 3.51Q46.63 3.51 46.63 3.70L46.63 3.70Q46.63 3.81 46.33 3.98Q46.03 4.16 45.96 4.30L45.96 4.30Q45.81 4.59 45.81 5.22L45.81 5.22Q45.81 5.32 45.81 5.62Q45.82 5.92 45.82 6.16L45.82 6.16Q45.82 8.85 45.60 10.28Q45.37 11.70 44.92 12.36Q44.46 13.01 43.55 13.40L43.55 13.40Q42.81 13.71 41.55 13.71L41.55 13.71Q39.21 13.71 38.23 12.81L38.23 12.81Q37.46 12.10 37.28 11.09Q37.10 10.09 37.10 7.64L37.10 7.64L37.10 7.41Q37.10 6.86 37.11 6.20Q37.13 5.54 37.13 5.39L37.13 5.39Q37.13 4.62 36.95 4.33Q36.76 4.05 36.09 3.95L36.09 3.95Q35.78 3.91 35.78 3.68ZM54.19 3.70L54.19 3.70Q54.19 3.47 54.60 3.47L54.60 3.47L56.92 3.47Q57.25 3.47 57.67 3.45Q58.09 3.43 58.32 3.43L58.32 3.43Q59.58 3.43 60.48 4.07Q61.38 4.70 61.38 5.78L61.38 5.78Q61.38 6.50 61.10 7.03Q60.83 7.57 60.50 7.81Q60.17 8.05 59.90 8.22Q59.63 8.40 59.63 8.46L59.63 8.46Q59.63 8.62 60.80 10.27Q61.98 11.91 62.41 12.38L62.41 12.38Q62.94 13.03 63.70 13.03L63.70 13.03Q63.90 13.03 63.90 13.20L63.90 13.20Q63.90 13.41 63.73 13.48Q63.56 13.55 62.86 13.55L62.86 13.55Q62.20 13.55 61.66 13.23L61.66 13.23Q60.96 12.82 59.29 10.09L59.29 10.09Q59.19 9.94 59.15 9.87L59.15 9.87Q58.48 8.78 58.11 8.78L58.11 8.78L57.82 8.78L56.97 8.78Q56.80 8.78 56.76 8.92Q56.73 9.06 56.73 9.77L56.73 9.77Q56.73 10.44 56.73 10.88Q56.73 11.31 56.73 11.43Q56.74 11.55 56.74 11.63Q56.74 11.70 56.74 11.75L56.74 11.75Q56.74 12.32 57.01 12.63Q57.27 12.95 57.60 13.00Q57.93 13.05 58.20 13.11Q58.46 13.17 58.46 13.31L58.46 13.31Q58.46 13.54 58.21 13.54L58.21 13.54Q58.20 13.54 57.25 13.49Q56.29 13.44 56.21 13.44L56.21 13.44Q55.80 13.44 55.24 13.47Q54.68 13.50 54.67 13.50L54.67 13.50Q54.38 13.50 54.38 13.27L54.38 13.27Q54.38 13.12 54.56 13.05Q54.74 12.99 54.96 12.96Q55.19 12.94 55.37 12.66Q55.55 12.38 55.55 11.86L55.55 11.86Q55.55 11.49 55.56 9.90Q55.57 8.30 55.57 7.45L55.57 7.45Q55.57 6.58 55.56 5.86Q55.55 5.14 55.55 5.08L55.55 5.08Q55.55 4.56 55.34 4.29Q55.13 4.02 54.87 3.98Q54.61 3.95 54.40 3.89Q54.19 3.84 54.19 3.70ZM56.73 5.54L56.73 5.94Q56.73 7.38 56.74 7.72Q56.76 8.06 56.84 8.12L56.84 8.12Q57.05 8.25 57.44 8.25L57.44 8.25L57.58 8.25L57.99 8.25Q59.18 8.25 59.69 7.70Q60.20 7.15 60.20 6.30L60.20 6.30Q60.20 5.43 59.52 4.72Q58.84 4.00 57.47 4.00L57.47 4.00Q56.95 4.00 56.84 4.28Q56.73 4.55 56.73 5.54L56.73 5.54ZM81.77 10.82L81.77 10.82Q81.77 10.53 81.97 10.53L81.97 10.53Q82.15 10.53 82.19 10.67L82.19 10.67Q82.33 11.00 82.45 11.25Q82.57 11.49 82.84 11.85Q83.10 12.21 83.41 12.44Q83.72 12.67 84.20 12.84Q84.69 13.01 85.26 13.01L85.26 13.01Q86.31 13.01 86.95 12.45Q87.58 11.90 87.58 11.00L87.58 11.00Q87.58 10.35 87.15 9.90Q86.72 9.46 86.16 9.27Q85.60 9.09 84.74 8.77Q83.87 8.46 83.33 8.13L83.33 8.13Q82.05 7.38 82.05 6.08L82.05 6.08Q82.05 4.83 82.96 4.08Q83.86 3.33 85.30 3.33L85.30 3.33Q85.83 3.33 86.57 3.56Q87.30 3.79 87.32 3.79L87.32 3.79Q87.36 3.79 87.47 3.74Q87.58 3.68 87.64 3.68L87.64 3.68Q87.82 3.68 87.85 3.79L87.85 3.79Q88.14 5.49 88.14 5.70L88.14 5.70Q88.14 6.09 87.95 6.09L87.95 6.09Q87.82 6.09 87.75 5.89L87.75 5.89Q87.58 5.49 87.42 5.24Q87.26 4.98 87.19 4.91Q87.12 4.84 86.83 4.58L86.83 4.58Q86.07 3.91 84.99 3.91L84.99 3.91Q84.13 3.91 83.54 4.33Q82.95 4.75 82.95 5.46L82.95 5.46Q82.95 6.09 83.29 6.50Q83.64 6.90 84.21 7.13Q84.78 7.35 85.41 7.55Q86.04 7.74 86.75 8.09Q87.46 8.44 87.92 8.93L87.92 8.93Q88.48 9.53 88.48 10.43L88.48 10.43Q88.48 11.90 87.54 12.76Q86.60 13.62 85.22 13.62L85.22 13.62Q84.25 13.62 83.66 13.52Q83.08 13.41 82.46 13.09L82.46 13.09Q82.28 12.98 82.03 12.00Q81.77 11.02 81.77 10.82ZM96.57 3.65L96.57 3.65Q96.57 3.46 96.96 3.46L96.96 3.46Q97.02 3.46 97.15 3.47Q97.27 3.49 97.34 3.49L97.34 3.49Q97.38 3.49 98.66 3.52Q99.93 3.56 100.76 3.56L100.76 3.56Q101.05 3.56 102.21 3.53Q103.36 3.50 103.56 3.50L103.56 3.50Q103.82 3.50 103.82 3.82L103.82 3.82Q103.82 3.91 103.74 4.38Q103.66 4.84 103.66 5.25L103.66 5.25Q103.66 5.38 103.59 5.47Q103.52 5.56 103.43 5.56L103.43 5.56Q103.22 5.56 103.22 5.26L103.22 5.26Q103.22 4.89 102.98 4.58Q102.75 4.27 102.40 4.26L102.40 4.26Q101.14 4.16 100.46 4.16L100.46 4.16L100.10 4.16Q99.37 4.16 99.25 4.26Q99.13 4.37 99.11 5.01L99.11 5.01Q99.05 6.02 99.05 7.35L99.05 7.35Q99.05 8.05 99.32 8.06L99.32 8.06L99.67 8.06L100.25 8.06L100.69 8.06Q101.53 8.06 101.81 8.01Q102.09 7.95 102.31 7.80L102.31 7.80Q102.58 7.62 102.63 7.28L102.63 7.28Q102.68 7.04 102.83 7.04L102.83 7.04Q102.96 7.04 102.98 7.08Q103.01 7.13 103.01 7.27L103.01 7.27Q103.01 7.36 102.96 7.91Q102.90 8.46 102.90 8.74L102.90 8.74Q102.90 9.00 102.92 9.24Q102.94 9.48 102.94 9.59L102.94 9.59Q102.94 9.94 102.84 9.94L102.84 9.94Q102.63 9.94 102.54 9.60L102.54 9.60Q102.34 9.02 102.19 8.92L102.19 8.92Q101.89 8.72 100.84 8.72L100.84 8.72Q100.42 8.72 100.16 8.72Q99.90 8.72 99.83 8.71Q99.75 8.71 99.70 8.71Q99.65 8.71 99.61 8.71L99.61 8.71Q99.04 8.71 99.04 8.97L99.04 8.97Q99.04 9.38 99.02 9.99Q99.01 10.60 99.01 10.99L99.01 10.99L99.01 11.55Q99.01 12.56 99.34 12.66L99.34 12.66Q99.69 12.77 99.95 12.77L99.95 12.77Q101.00 12.77 101.79 12.67Q102.58 12.57 102.98 12.42Q103.38 12.28 103.64 12.10Q103.91 11.93 103.98 11.78Q104.06 11.63 104.14 11.54Q104.22 11.44 104.30 11.44L104.30 11.44Q104.47 11.44 104.47 11.68L104.47 11.68Q104.47 12.28 103.87 12.89Q103.26 13.51 102.82 13.51L102.82 13.51Q101.81 13.51 100.54 13.44Q99.27 13.37 98.97 13.37L98.97 13.37Q98.57 13.37 97.99 13.43Q97.40 13.50 97.06 13.50L97.06 13.50Q96.77 13.50 96.77 13.36L96.77 13.36Q96.77 13.23 96.77 13.19Q96.77 13.15 96.81 13.12Q96.85 13.09 96.90 13.08Q96.95 13.08 97.08 13.03Q97.22 12.99 97.37 12.92L97.37 12.92Q97.71 12.75 97.81 12.26Q97.92 11.77 97.92 10.21L97.92 10.21L97.92 8.47Q97.92 8.09 97.94 7.29Q97.96 6.50 97.96 6.05L97.96 6.05Q97.96 5.67 97.93 4.77L97.93 4.77Q97.92 4.37 97.58 4.14Q97.24 3.92 96.80 3.91L96.80 3.91Q96.57 3.91 96.57 3.65ZM112.36 8.90L112.36 8.90Q112.36 7.38 112.95 6.16Q113.54 4.94 114.77 4.19Q115.99 3.44 117.67 3.44L117.67 3.44Q118.52 3.44 119.39 3.70Q120.26 3.95 120.78 4.20L120.78 4.20L121.30 4.47Q121.34 4.47 121.44 4.40Q121.53 4.33 121.59 4.33L121.59 4.33Q121.66 4.33 121.73 4.38Q121.80 4.44 121.80 4.55L121.80 4.55Q121.81 4.96 121.86 5.41Q121.91 5.87 121.95 6.16Q122.00 6.45 122.00 6.51L122.00 6.51Q122.00 6.76 121.83 6.76L121.83 6.76Q121.70 6.76 121.59 6.57L121.59 6.57Q120.23 4.02 117.67 4.02L117.67 4.02Q115.92 4.02 114.80 5.14Q113.68 6.26 113.68 8.06L113.68 8.06Q113.68 9.06 113.94 9.93Q114.20 10.79 114.72 11.51Q115.25 12.24 116.17 12.66Q117.10 13.08 118.33 13.08L118.33 13.08Q120.34 13.08 121.72 10.98L121.72 10.98Q121.77 10.88 121.93 10.88L121.93 10.88Q122.05 10.88 122.05 11.07L122.05 11.07Q122.05 11.23 122.00 11.49Q121.95 11.75 121.88 12.06Q121.81 12.38 121.80 12.45L121.80 12.45Q121.77 12.60 121.58 12.70L121.58 12.70Q120.82 13.06 120.39 13.24Q119.97 13.43 119.31 13.57Q118.65 13.72 117.96 13.72L117.96 13.72Q116.75 13.72 115.77 13.43Q114.79 13.13 114.16 12.66Q113.54 12.18 113.12 11.54Q112.70 10.91 112.53 10.25Q112.36 9.60 112.36 8.90ZM130.33 3.68L130.33 3.68Q130.33 3.61 130.34 3.58Q130.35 3.56 130.42 3.53Q130.49 3.50 130.65 3.50Q130.80 3.50 131.29 3.53Q131.78 3.56 132.23 3.56L132.23 3.56Q132.51 3.56 132.74 3.54Q132.97 3.53 133.55 3.53L133.55 3.53Q133.84 3.53 133.84 3.72L133.84 3.72Q133.84 3.85 133.74 3.88Q133.64 3.91 133.50 3.92Q133.35 3.93 133.20 4.02Q133.06 4.10 132.96 4.43Q132.86 4.76 132.86 5.32L132.86 5.32L132.86 5.71Q132.86 6.37 132.85 7.37Q132.85 8.37 132.85 8.74L132.85 8.74Q132.85 9.17 132.85 9.39Q132.86 9.62 132.89 10.04Q132.92 10.47 132.97 10.72Q133.01 10.96 133.13 11.32Q133.24 11.68 133.40 11.89Q133.56 12.10 133.80 12.35Q134.05 12.60 134.37 12.73Q134.69 12.87 135.13 12.96Q135.56 13.05 136.09 13.05L136.09 13.05Q136.54 13.05 136.79 13.03Q137.05 13.02 137.49 12.94Q137.93 12.87 138.19 12.72Q138.45 12.57 138.78 12.27Q139.10 11.97 139.29 11.54Q139.47 11.10 139.59 10.43Q139.72 9.76 139.72 8.90L139.72 8.90Q139.72 7.49 139.71 6.75Q139.71 6.01 139.71 5.94L139.71 5.94Q139.71 5.45 139.69 5.17Q139.66 4.89 139.54 4.55Q139.43 4.21 139.20 4.06L139.20 4.06Q139.06 3.96 138.84 3.93Q138.61 3.89 138.47 3.87Q138.33 3.85 138.33 3.75L138.33 3.75Q138.33 3.53 138.61 3.53L138.61 3.53Q138.70 3.53 139.16 3.54Q139.62 3.56 139.69 3.56L139.69 3.56Q140.03 3.56 140.41 3.54Q140.78 3.51 140.88 3.51L140.88 3.51Q141.18 3.51 141.18 3.70L141.18 3.70Q141.18 3.81 140.88 3.98Q140.57 4.16 140.50 4.30L140.50 4.30Q140.35 4.59 140.35 5.22L140.35 5.22Q140.35 5.32 140.36 5.62Q140.36 5.92 140.36 6.16L140.36 6.16Q140.36 8.85 140.14 10.28Q139.92 11.70 139.46 12.36Q139.01 13.01 138.10 13.40L138.10 13.40Q137.35 13.71 136.09 13.71L136.09 13.71Q133.76 13.71 132.78 12.81L132.78 12.81Q132.01 12.10 131.82 11.09Q131.64 10.09 131.64 7.64L131.64 7.64L131.64 7.41Q131.64 6.86 131.66 6.20Q131.67 5.54 131.67 5.39L131.67 5.39Q131.67 4.62 131.49 4.33Q131.31 4.05 130.63 3.95L130.63 3.95Q130.33 3.91 130.33 3.68ZM148.74 3.70L148.74 3.70Q148.74 3.47 149.14 3.47L149.14 3.47L151.47 3.47Q151.79 3.47 152.21 3.45Q152.63 3.43 152.87 3.43L152.87 3.43Q154.13 3.43 155.02 4.07Q155.92 4.70 155.92 5.78L155.92 5.78Q155.92 6.50 155.64 7.03Q155.37 7.57 155.04 7.81Q154.71 8.05 154.44 8.22Q154.17 8.40 154.17 8.46L154.17 8.46Q154.17 8.62 155.34 10.27Q156.52 11.91 156.95 12.38L156.95 12.38Q157.49 13.03 158.24 13.03L158.24 13.03Q158.44 13.03 158.44 13.20L158.44 13.20Q158.44 13.41 158.27 13.48Q158.10 13.55 157.40 13.55L157.40 13.55Q156.74 13.55 156.20 13.23L156.20 13.23Q155.50 12.82 153.83 10.09L153.83 10.09Q153.73 9.94 153.69 9.87L153.69 9.87Q153.02 8.78 152.66 8.78L152.66 8.78L152.36 8.78L151.51 8.78Q151.34 8.78 151.30 8.92Q151.27 9.06 151.27 9.77L151.27 9.77Q151.27 10.44 151.27 10.88Q151.27 11.31 151.28 11.43Q151.28 11.55 151.28 11.63Q151.28 11.70 151.28 11.75L151.28 11.75Q151.28 12.32 151.55 12.63Q151.82 12.95 152.14 13.00Q152.47 13.05 152.74 13.11Q153.01 13.17 153.01 13.31L153.01 13.31Q153.01 13.54 152.75 13.54L152.75 13.54Q152.74 13.54 151.79 13.49Q150.84 13.44 150.75 13.44L150.75 13.44Q150.35 13.44 149.79 13.47Q149.23 13.50 149.21 13.50L149.21 13.50Q148.92 13.50 148.92 13.27L148.92 13.27Q148.92 13.12 149.10 13.05Q149.28 12.99 149.51 12.96Q149.73 12.94 149.91 12.66Q150.09 12.38 150.09 11.86L150.09 11.86Q150.09 11.49 150.10 9.90Q150.11 8.30 150.11 7.45L150.11 7.45Q150.11 6.58 150.10 5.86Q150.09 5.14 150.09 5.08L150.09 5.08Q150.09 4.56 149.88 4.29Q149.67 4.02 149.41 3.98Q149.16 3.95 148.95 3.89Q148.74 3.84 148.74 3.70ZM151.27 5.54L151.27 5.94Q151.27 7.38 151.28 7.72Q151.30 8.06 151.38 8.12L151.38 8.12Q151.59 8.25 151.98 8.25L151.98 8.25L152.12 8.25L152.53 8.25Q153.72 8.25 154.23 7.70Q154.74 7.15 154.74 6.30L154.74 6.30Q154.74 5.43 154.06 4.72Q153.38 4.00 152.01 4.00L152.01 4.00Q151.49 4.00 151.38 4.28Q151.27 4.55 151.27 5.54L151.27 5.54ZM165.79 3.71L165.79 3.71Q165.79 3.50 166.18 3.50L166.18 3.50Q166.32 3.50 166.82 3.53Q167.33 3.56 167.76 3.56L167.76 3.56Q168.03 3.56 168.27 3.54Q168.52 3.53 168.99 3.53L168.99 3.53Q169.37 3.53 169.37 3.72L169.37 3.72Q169.37 3.84 168.73 4.10L168.73 4.10Q168.28 4.28 168.28 5.71L168.28 5.71Q168.28 7.60 168.26 9.05Q168.24 10.50 168.24 10.89L168.24 10.89Q168.24 12.07 168.59 12.59L168.59 12.59Q168.90 13.02 169.26 13.02L169.26 13.02Q169.29 13.02 169.40 13.03Q169.51 13.03 169.54 13.03L169.54 13.03Q169.64 13.03 169.74 13.08Q169.83 13.13 169.83 13.19L169.83 13.19Q169.83 13.34 169.76 13.39Q169.68 13.44 169.48 13.44L169.48 13.44Q169.06 13.44 168.71 13.41Q168.35 13.38 168.15 13.38L168.15 13.38Q167.76 13.38 167.30 13.42Q166.84 13.45 166.61 13.45L166.61 13.45Q165.98 13.45 165.98 13.24L165.98 13.24Q165.98 13.12 166.12 13.07Q166.25 13.02 166.42 13.00Q166.59 12.98 166.77 12.82Q166.95 12.66 167.02 12.35L167.02 12.35Q167.05 12.25 167.11 10.76Q167.17 9.27 167.17 8.61L167.17 8.61L167.17 7.81Q167.17 7.63 167.18 7.12Q167.19 6.61 167.19 6.30L167.19 6.30L167.19 5.66Q167.19 5.04 167.13 4.63L167.13 4.63Q167.09 4.30 166.76 4.12Q166.43 3.93 166.08 3.92L166.08 3.92Q165.79 3.91 165.79 3.71ZM177.38 5.32L177.38 5.32Q177.38 4.76 177.52 3.88L177.52 3.88Q177.52 3.85 177.53 3.78Q177.53 3.71 177.54 3.69Q177.55 3.67 177.56 3.62Q177.56 3.57 177.58 3.55Q177.59 3.53 177.61 3.49Q177.63 3.46 177.66 3.44Q177.69 3.43 177.73 3.42Q177.77 3.40 177.83 3.39Q177.88 3.39 177.95 3.39L177.95 3.39Q178.18 3.39 179.14 3.44Q180.10 3.50 181.90 3.50L181.90 3.50Q184.98 3.50 186.21 3.43L186.21 3.43Q186.23 3.43 186.26 3.42Q186.30 3.42 186.31 3.42L186.31 3.42Q186.47 3.42 186.52 3.50Q186.58 3.58 186.58 3.65L186.58 3.65Q186.58 3.75 186.62 4.24Q186.66 4.73 186.66 4.79L186.66 4.79Q186.66 5.14 186.62 5.23Q186.58 5.32 186.44 5.32L186.44 5.32Q186.33 5.32 186.28 5.15L186.28 5.15Q186.17 4.75 186.09 4.60Q186.00 4.45 185.72 4.34Q185.44 4.23 184.87 4.23L184.87 4.23L183.05 4.23Q182.71 4.23 182.64 4.36Q182.56 4.49 182.56 5.12L182.56 5.12L182.56 5.81Q182.56 7.69 182.54 9.11Q182.52 10.54 182.52 10.93L182.52 10.93Q182.52 11.13 182.51 11.43Q182.50 11.73 182.50 11.84L182.50 11.84Q182.50 12.45 182.70 12.64L182.70 12.64Q182.88 12.81 183.11 12.90Q183.33 12.99 183.49 13.01Q183.65 13.02 183.76 13.08Q183.88 13.13 183.88 13.26L183.88 13.26Q183.88 13.41 183.81 13.45Q183.74 13.50 183.54 13.50L183.54 13.50Q183.37 13.50 182.80 13.44Q182.22 13.38 181.99 13.38L181.99 13.38Q181.82 13.38 181.31 13.43Q180.80 13.48 180.56 13.48L180.56 13.48Q180.04 13.48 180.04 13.26L180.04 13.26Q180.04 13.12 180.12 13.07Q180.21 13.02 180.45 12.98Q180.70 12.95 180.77 12.94L180.77 12.94Q181.24 12.82 181.30 12.38L181.30 12.38Q181.44 11.14 181.44 7.08L181.44 7.08L181.43 4.58Q181.43 4.31 181.27 4.25Q181.12 4.19 180.36 4.19L180.36 4.19Q179.38 4.19 178.88 4.24Q178.39 4.30 178.30 4.35Q178.22 4.40 178.11 4.54L178.11 4.54Q177.98 4.70 177.91 4.91Q177.83 5.11 177.81 5.24Q177.79 5.38 177.72 5.47Q177.66 5.56 177.53 5.56L177.53 5.56Q177.38 5.56 177.38 5.32ZM194.22 3.81L194.22 3.81Q194.22 3.65 194.38 3.61Q194.54 3.57 195.09 3.57L195.09 3.57Q195.17 3.57 195.47 3.58Q195.78 3.60 195.90 3.60L195.90 3.60Q196.06 3.60 196.47 3.59Q196.88 3.58 197.09 3.58L197.09 3.58Q197.79 3.58 197.79 3.75L197.79 3.75Q197.79 3.91 197.50 4.01Q197.20 4.12 197.20 4.24L197.20 4.24Q197.20 4.38 197.30 4.61Q197.39 4.83 197.48 4.97Q197.57 5.11 197.75 5.38Q197.93 5.64 197.96 5.70L197.96 5.70Q198.44 6.45 198.95 7.14Q199.46 7.83 199.53 7.83L199.53 7.83Q199.61 7.83 199.74 7.66Q199.86 7.50 200.09 7.13Q200.31 6.75 200.47 6.52L200.47 6.52Q200.51 6.45 200.67 6.22Q200.83 5.98 200.89 5.88Q200.96 5.78 201.08 5.58Q201.21 5.38 201.26 5.27Q201.32 5.17 201.40 5.02Q201.47 4.87 201.50 4.77Q201.53 4.68 201.53 4.59L201.53 4.59Q201.53 4.14 201.05 4.03L201.05 4.03Q201.00 4.02 200.89 4.00Q200.79 3.99 200.74 3.98Q200.69 3.96 200.62 3.93Q200.55 3.91 200.52 3.86Q200.49 3.81 200.49 3.74L200.49 3.74Q200.49 3.57 200.89 3.57L200.89 3.57Q200.96 3.57 201.15 3.58Q201.33 3.58 201.46 3.58L201.46 3.58Q201.78 3.58 202.24 3.59Q202.69 3.60 202.94 3.60L202.94 3.60Q203.63 3.60 203.63 3.81L203.63 3.81Q203.63 3.86 203.55 3.91Q203.46 3.95 203.31 4.02Q203.15 4.09 203.03 4.19L203.03 4.19Q202.45 4.63 201.34 6.31Q200.23 7.99 200.07 8.19L200.07 8.19Q199.85 8.47 199.79 8.81Q199.74 9.14 199.74 9.95L199.74 9.95Q199.74 10.14 199.75 10.73Q199.75 11.33 199.75 11.58L199.75 11.58L199.75 11.91Q199.75 12.38 199.91 12.64Q200.07 12.91 200.21 12.96Q200.35 13.01 200.49 13.01L200.49 13.01Q200.52 13.01 200.63 13.01Q200.75 13.02 200.77 13.02L200.77 13.02Q200.87 13.02 200.93 13.08Q200.98 13.15 200.98 13.22L200.98 13.22Q200.98 13.36 200.91 13.40Q200.84 13.44 200.65 13.44L200.65 13.44Q200.58 13.44 200.04 13.43Q199.50 13.43 199.25 13.43L199.25 13.43Q198.76 13.43 198.35 13.45Q197.95 13.48 197.71 13.48L197.71 13.48Q197.32 13.48 197.32 13.33L197.32 13.33Q197.32 13.20 197.39 13.15Q197.47 13.10 197.65 13.09Q197.83 13.08 197.92 13.05L197.92 13.05Q198.51 12.87 198.51 12.19L198.51 12.19Q198.51 12.11 198.51 11.92Q198.52 11.73 198.53 11.12Q198.53 10.50 198.53 9.35L198.53 9.35Q198.53 9.13 198.50 8.97Q198.46 8.81 198.42 8.65Q198.37 8.50 198.18 8.20Q197.99 7.91 197.81 7.64Q197.62 7.36 197.18 6.72Q196.74 6.08 196.34 5.46L196.34 5.46Q195.90 4.80 195.55 4.46Q195.20 4.12 195.01 4.05Q194.82 3.99 194.57 3.99L194.57 3.99Q194.22 3.99 194.22 3.81ZM221.17 3.72L221.17 3.72Q221.17 3.50 221.49 3.50L221.49 3.50Q221.54 3.50 221.65 3.49Q221.76 3.49 222.01 3.49L222.01 3.49Q222.08 3.49 222.40 3.51Q222.71 3.53 222.85 3.53L222.85 3.53Q223.16 3.53 224.04 3.51Q224.92 3.49 225.16 3.49L225.16 3.49Q226.48 3.49 227.43 4.15Q228.38 4.82 228.38 6.06L228.38 6.06Q228.38 6.75 228.13 7.29Q227.88 7.83 227.52 8.13Q227.16 8.44 226.72 8.64Q226.28 8.85 225.94 8.91Q225.60 8.97 225.33 8.97L225.33 8.97Q224.88 8.97 224.42 8.87Q223.96 8.76 223.96 8.65L223.96 8.65Q223.96 8.44 224.14 8.44L224.14 8.44Q224.21 8.44 224.43 8.50Q224.64 8.55 224.85 8.55L224.85 8.55Q225.18 8.55 225.54 8.46Q225.90 8.37 226.30 8.17Q226.69 7.97 226.94 7.55Q227.19 7.14 227.19 6.59L227.19 6.59Q227.19 5.66 226.44 4.85Q225.68 4.05 224.35 4.05L224.35 4.05Q223.92 4.05 223.76 4.30Q223.61 4.56 223.61 5.47L223.61 5.47Q223.61 8.39 223.59 8.80Q223.58 9.21 223.58 11.26L223.58 11.26Q223.58 12.49 224.15 12.87L224.15 12.87Q224.31 12.96 224.54 12.99Q224.77 13.02 224.92 13.01Q225.08 13.01 225.20 13.07Q225.32 13.13 225.32 13.30L225.32 13.30Q225.32 13.54 224.99 13.54Q224.67 13.54 223.86 13.50Q223.05 13.47 222.99 13.47L222.99 13.47Q222.85 13.47 222.44 13.50Q222.03 13.52 221.69 13.52L221.69 13.52Q221.26 13.52 221.26 13.37L221.26 13.37Q221.26 13.29 221.28 13.23Q221.30 13.17 221.32 13.14Q221.34 13.10 221.41 13.08Q221.48 13.05 221.51 13.03Q221.54 13.02 221.64 13.00Q221.75 12.98 221.79 12.96L221.79 12.96Q221.82 12.95 221.87 12.94Q221.93 12.94 221.95 12.93Q221.97 12.92 222.02 12.89Q222.07 12.85 222.10 12.79Q222.12 12.73 222.17 12.62Q222.22 12.52 222.28 12.35L222.28 12.35Q222.38 12.08 222.43 10.25Q222.49 8.41 222.49 7.41L222.49 7.41Q222.49 6.54 222.48 5.80Q222.47 5.07 222.47 5.03L222.47 5.03Q222.47 4.65 222.24 4.28Q222.00 3.91 221.45 3.91L221.45 3.91Q221.17 3.91 221.17 3.72ZM234.78 13.33L234.78 13.33Q234.78 13.13 234.99 13.06L234.99 13.06Q235.44 12.89 235.77 12.31Q236.11 11.73 237.44 8.83L237.44 8.83Q238.81 5.87 239.86 3.63L239.86 3.63Q239.96 3.42 240.04 3.36Q240.11 3.30 240.28 3.30L240.28 3.30Q240.41 3.30 240.45 3.36Q240.49 3.42 240.63 3.82L240.63 3.82Q240.72 4.06 240.78 4.23Q240.84 4.40 240.98 4.77Q241.12 5.15 241.29 5.56L241.29 5.56Q241.74 6.66 242.84 9.22Q243.94 11.77 244.03 11.98L244.03 11.98Q244.27 12.46 244.57 12.71Q244.86 12.95 245.08 12.97Q245.29 12.99 245.44 13.04Q245.59 13.09 245.59 13.26L245.59 13.26Q245.59 13.47 245.21 13.47L245.21 13.47Q245.06 13.47 244.61 13.43Q244.16 13.38 243.95 13.38L243.95 13.38Q243.68 13.38 243.26 13.41Q242.84 13.44 242.65 13.44L242.65 13.44Q242.21 13.44 242.09 13.40Q241.98 13.37 241.98 13.24L241.98 13.24Q241.98 13.15 242.09 13.08Q242.20 13.02 242.33 13.00Q242.45 12.98 242.56 12.87Q242.68 12.77 242.68 12.59L242.68 12.59Q242.68 12.28 242.33 11.33Q241.98 10.37 241.74 9.93L241.74 9.93Q241.61 9.69 241.16 9.69L241.16 9.69Q241.09 9.69 240.55 9.70Q240.00 9.72 239.47 9.72L239.47 9.72L238.73 9.72Q238.10 9.72 237.94 9.79Q237.78 9.86 237.65 10.12L237.65 10.12Q237.57 10.30 237.37 10.70Q237.17 11.10 237.10 11.26Q237.03 11.41 236.93 11.65Q236.82 11.90 236.79 12.05Q236.75 12.19 236.75 12.31L236.75 12.31Q236.75 12.63 236.91 12.80Q237.08 12.96 237.27 12.98Q237.47 13.01 237.63 13.06Q237.79 13.12 237.79 13.26L237.79 13.26Q237.79 13.36 237.75 13.40Q237.71 13.45 237.55 13.45L237.55 13.45Q237.47 13.45 237.07 13.45Q236.67 13.44 236.39 13.44L236.39 13.44Q236.08 13.44 235.70 13.47Q235.31 13.50 235.19 13.50L235.19 13.50Q234.78 13.50 234.78 13.33ZM238.29 8.71L238.29 8.71Q238.29 8.89 238.42 8.93Q238.55 8.97 239.01 8.97L239.01 8.97L239.44 8.97L240.77 8.96Q241.32 8.96 241.32 8.74L241.32 8.74Q241.32 8.55 240.63 7.01Q239.95 5.46 239.76 5.46L239.76 5.46Q239.64 5.46 238.97 7.01Q238.29 8.55 238.29 8.71ZM253.15 3.70L253.15 3.70Q253.15 3.47 253.55 3.47L253.55 3.47L255.88 3.47Q256.20 3.47 256.62 3.45Q257.04 3.43 257.28 3.43L257.28 3.43Q258.54 3.43 259.43 4.07Q260.33 4.70 260.33 5.78L260.33 5.78Q260.33 6.50 260.06 7.03Q259.78 7.57 259.45 7.81Q259.13 8.05 258.85 8.22Q258.58 8.40 258.58 8.46L258.58 8.46Q258.58 8.62 259.76 10.27Q260.93 11.91 261.37 12.38L261.37 12.38Q261.90 13.03 262.65 13.03L262.65 13.03Q262.85 13.03 262.85 13.20L262.85 13.20Q262.85 13.41 262.68 13.48Q262.51 13.55 261.81 13.55L261.81 13.55Q261.16 13.55 260.61 13.23L260.61 13.23Q259.91 12.82 258.24 10.09L258.24 10.09Q258.15 9.94 258.10 9.87L258.10 9.87Q257.43 8.78 257.07 8.78L257.07 8.78L256.77 8.78L255.92 8.78Q255.75 8.78 255.72 8.92Q255.68 9.06 255.68 9.77L255.68 9.77Q255.68 10.44 255.68 10.88Q255.68 11.31 255.69 11.43Q255.70 11.55 255.70 11.63Q255.70 11.70 255.70 11.75L255.70 11.75Q255.70 12.32 255.96 12.63Q256.23 12.95 256.56 13.00Q256.89 13.05 257.15 13.11Q257.42 13.17 257.42 13.31L257.42 13.31Q257.42 13.54 257.17 13.54L257.17 13.54Q257.15 13.54 256.20 13.49Q255.25 13.44 255.16 13.44L255.16 13.44Q254.76 13.44 254.20 13.47Q253.64 13.50 253.62 13.50L253.62 13.50Q253.33 13.50 253.33 13.27L253.33 13.27Q253.33 13.12 253.51 13.05Q253.69 12.99 253.92 12.96Q254.14 12.94 254.32 12.66Q254.51 12.38 254.51 11.86L254.51 11.86Q254.51 11.49 254.51 9.90Q254.52 8.30 254.52 7.45L254.52 7.45Q254.52 6.58 254.51 5.86Q254.51 5.14 254.51 5.08L254.51 5.08Q254.51 4.56 254.30 4.29Q254.09 4.02 253.83 3.98Q253.57 3.95 253.36 3.89Q253.15 3.84 253.15 3.70ZM255.68 5.54L255.68 5.94Q255.68 7.38 255.70 7.72Q255.71 8.06 255.79 8.12L255.79 8.12Q256.00 8.25 256.40 8.25L256.40 8.25L256.54 8.25L256.94 8.25Q258.13 8.25 258.64 7.70Q259.15 7.15 259.15 6.30L259.15 6.30Q259.15 5.43 258.47 4.72Q257.80 4.00 256.42 4.00L256.42 4.00Q255.91 4.00 255.79 4.28Q255.68 4.55 255.68 5.54L255.68 5.54ZM268.97 5.32L268.97 5.32Q268.97 4.76 269.11 3.88L269.11 3.88Q269.11 3.85 269.11 3.78Q269.12 3.71 269.13 3.69Q269.14 3.67 269.14 3.62Q269.15 3.57 269.16 3.55Q269.18 3.53 269.20 3.49Q269.22 3.46 269.25 3.44Q269.28 3.43 269.32 3.42Q269.36 3.40 269.42 3.39Q269.47 3.39 269.54 3.39L269.54 3.39Q269.77 3.39 270.72 3.44Q271.68 3.50 273.49 3.50L273.49 3.50Q276.57 3.50 277.80 3.43L277.80 3.43Q277.82 3.43 277.85 3.42Q277.89 3.42 277.90 3.42L277.90 3.42Q278.05 3.42 278.11 3.50Q278.17 3.58 278.17 3.65L278.17 3.65Q278.17 3.75 278.21 4.24Q278.25 4.73 278.25 4.79L278.25 4.79Q278.25 5.14 278.21 5.23Q278.17 5.32 278.03 5.32L278.03 5.32Q277.91 5.32 277.87 5.15L277.87 5.15Q277.76 4.75 277.68 4.60Q277.59 4.45 277.31 4.34Q277.03 4.23 276.46 4.23L276.46 4.23L274.64 4.23Q274.30 4.23 274.22 4.36Q274.15 4.49 274.15 5.12L274.15 5.12L274.15 5.81Q274.15 7.69 274.13 9.11Q274.11 10.54 274.11 10.93L274.11 10.93Q274.11 11.13 274.10 11.43Q274.09 11.73 274.09 11.84L274.09 11.84Q274.09 12.45 274.29 12.64L274.29 12.64Q274.47 12.81 274.69 12.90Q274.92 12.99 275.08 13.01Q275.24 13.02 275.35 13.08Q275.46 13.13 275.46 13.26L275.46 13.26Q275.46 13.41 275.39 13.45Q275.32 13.50 275.13 13.50L275.13 13.50Q274.96 13.50 274.39 13.44Q273.81 13.38 273.57 13.38L273.57 13.38Q273.41 13.38 272.89 13.43Q272.38 13.48 272.15 13.48L272.15 13.48Q271.63 13.48 271.63 13.26L271.63 13.26Q271.63 13.12 271.71 13.07Q271.80 13.02 272.04 12.98Q272.29 12.95 272.36 12.94L272.36 12.94Q272.83 12.82 272.89 12.38L272.89 12.38Q273.03 11.14 273.03 7.08L273.03 7.08L273.01 4.58Q273.01 4.31 272.86 4.25Q272.71 4.19 271.95 4.19L271.95 4.19Q270.97 4.19 270.47 4.24Q269.98 4.30 269.89 4.35Q269.81 4.40 269.70 4.54L269.70 4.54Q269.57 4.70 269.49 4.91Q269.42 5.11 269.39 5.24Q269.37 5.38 269.31 5.47Q269.25 5.56 269.12 5.56L269.12 5.56Q268.97 5.56 268.97 5.32ZM285.81 3.77L285.81 3.77Q285.81 3.68 285.91 3.60Q286.01 3.53 286.16 3.53L286.16 3.53Q286.24 3.53 286.44 3.54Q286.64 3.54 286.69 3.54L286.69 3.54Q286.90 3.54 287.08 3.53Q287.27 3.51 287.38 3.51L287.38 3.51Q287.50 3.51 287.67 3.59Q287.84 3.67 287.87 3.75L287.87 3.75Q287.90 3.79 288.02 3.94Q288.15 4.09 288.36 4.33Q288.57 4.56 288.74 4.79L288.74 4.79Q290.64 7.27 293.83 10.77L293.83 10.77Q293.92 10.86 294.03 10.99Q294.15 11.12 294.20 11.18Q294.25 11.24 294.31 11.30Q294.36 11.35 294.40 11.38Q294.43 11.40 294.46 11.40L294.46 11.40Q294.60 11.40 294.60 10.53L294.60 10.53L294.60 8.89Q294.60 7.95 294.59 7.31Q294.59 6.66 294.58 6.38Q294.57 6.09 294.57 6.02L294.57 6.02L294.57 5.92Q294.57 5.45 294.51 5.11Q294.45 4.77 294.36 4.59Q294.28 4.41 294.12 4.28Q293.96 4.16 293.85 4.12Q293.73 4.09 293.52 4.05Q293.31 4.00 293.23 3.98L293.23 3.98Q292.95 3.89 292.95 3.74L292.95 3.74Q292.95 3.53 293.22 3.53L293.22 3.53Q293.30 3.53 293.89 3.54Q294.48 3.54 294.55 3.54L294.55 3.54Q294.88 3.54 295.29 3.53Q295.71 3.51 295.81 3.51L295.81 3.51Q296.04 3.51 296.13 3.56Q296.23 3.61 296.23 3.75L296.23 3.75Q296.23 3.81 296.15 3.86Q296.07 3.91 295.99 3.94Q295.90 3.98 295.82 4.00L295.82 4.00L295.74 4.03Q295.27 4.28 295.27 5.61L295.27 5.61L295.27 6.15Q295.27 7.21 295.20 9.83Q295.12 12.46 295.12 13.08L295.12 13.08L295.12 13.36Q295.12 13.68 294.92 13.68L294.92 13.68Q294.80 13.68 294.70 13.58L294.70 13.58Q290.05 8.19 289.15 7.17Q288.25 6.16 288.15 6.16L288.15 6.16Q288.01 6.16 288.01 7.11L288.01 7.11Q288.01 8.44 287.95 9.97Q287.90 11.51 287.90 11.65L287.90 11.65Q287.90 12.28 288.11 12.61Q288.33 12.94 288.58 12.98Q288.83 13.02 289.05 13.07Q289.27 13.12 289.27 13.26L289.27 13.26Q289.27 13.41 289.22 13.45Q289.17 13.50 289.04 13.50L289.04 13.50Q288.95 13.50 288.60 13.48Q288.26 13.47 287.55 13.47L287.55 13.47Q287.42 13.47 287.03 13.48Q286.64 13.50 286.36 13.50L286.36 13.50Q286.05 13.50 286.05 13.27L286.05 13.27Q286.05 13.15 286.23 13.11Q286.41 13.08 286.68 12.89Q286.94 12.71 287.08 12.21L287.08 12.21Q287.17 11.89 287.29 9.60Q287.42 7.32 287.42 6.45L287.42 6.45Q287.42 5.25 287.08 4.65Q286.75 4.06 285.99 3.98L285.99 3.98Q285.81 3.96 285.81 3.77ZM303.98 3.65L303.98 3.65Q303.98 3.46 304.37 3.46L304.37 3.46Q304.43 3.46 304.56 3.47Q304.68 3.49 304.75 3.49L304.75 3.49Q304.79 3.49 306.07 3.52Q307.34 3.56 308.17 3.56L308.17 3.56Q308.46 3.56 309.62 3.53Q310.77 3.50 310.97 3.50L310.97 3.50Q311.23 3.50 311.23 3.82L311.23 3.82Q311.23 3.91 311.15 4.38Q311.07 4.84 311.07 5.25L311.07 5.25Q311.07 5.38 311.00 5.47Q310.93 5.56 310.84 5.56L310.84 5.56Q310.63 5.56 310.63 5.26L310.63 5.26Q310.63 4.89 310.39 4.58Q310.16 4.27 309.81 4.26L309.81 4.26Q308.55 4.16 307.87 4.16L307.87 4.16L307.51 4.16Q306.78 4.16 306.66 4.26Q306.54 4.37 306.52 5.01L306.52 5.01Q306.46 6.02 306.46 7.35L306.46 7.35Q306.46 8.05 306.73 8.06L306.73 8.06L307.08 8.06L307.66 8.06L308.10 8.06Q308.94 8.06 309.22 8.01Q309.50 7.95 309.72 7.80L309.72 7.80Q309.99 7.62 310.04 7.28L310.04 7.28Q310.09 7.04 310.24 7.04L310.24 7.04Q310.37 7.04 310.39 7.08Q310.42 7.13 310.42 7.27L310.42 7.27Q310.42 7.36 310.37 7.91Q310.31 8.46 310.31 8.74L310.31 8.74Q310.31 9.00 310.33 9.24Q310.35 9.48 310.35 9.59L310.35 9.59Q310.35 9.94 310.25 9.94L310.25 9.94Q310.04 9.94 309.95 9.60L309.95 9.60Q309.75 9.02 309.60 8.92L309.60 8.92Q309.30 8.72 308.25 8.72L308.25 8.72Q307.83 8.72 307.57 8.72Q307.31 8.72 307.24 8.71Q307.16 8.71 307.11 8.71Q307.06 8.71 307.02 8.71L307.02 8.71Q306.45 8.71 306.45 8.97L306.45 8.97Q306.45 9.38 306.43 9.99Q306.42 10.60 306.42 10.99L306.42 10.99L306.42 11.55Q306.42 12.56 306.75 12.66L306.75 12.66Q307.10 12.77 307.36 12.77L307.36 12.77Q308.41 12.77 309.20 12.67Q309.99 12.57 310.39 12.42Q310.79 12.28 311.05 12.10Q311.32 11.93 311.39 11.78Q311.47 11.63 311.55 11.54Q311.63 11.44 311.71 11.44L311.71 11.44Q311.88 11.44 311.88 11.68L311.88 11.68Q311.88 12.28 311.28 12.89Q310.67 13.51 310.23 13.51L310.23 13.51Q309.22 13.51 307.95 13.44Q306.68 13.37 306.38 13.37L306.38 13.37Q305.98 13.37 305.40 13.43Q304.81 13.50 304.47 13.50L304.47 13.50Q304.18 13.50 304.18 13.36L304.18 13.36Q304.18 13.23 304.18 13.19Q304.18 13.15 304.22 13.12Q304.26 13.09 304.31 13.08Q304.36 13.08 304.49 13.03Q304.63 12.99 304.78 12.92L304.78 12.92Q305.12 12.75 305.22 12.26Q305.33 11.77 305.33 10.21L305.33 10.21L305.33 8.47Q305.33 8.09 305.35 7.29Q305.37 6.50 305.37 6.05L305.37 6.05Q305.37 5.67 305.34 4.77L305.34 4.77Q305.33 4.37 304.99 4.14Q304.65 3.92 304.21 3.91L304.21 3.91Q303.98 3.91 303.98 3.65ZM319.44 3.70L319.44 3.70Q319.44 3.47 319.84 3.47L319.84 3.47L322.17 3.47Q322.49 3.47 322.91 3.45Q323.33 3.43 323.57 3.43L323.57 3.43Q324.83 3.43 325.72 4.07Q326.62 4.70 326.62 5.78L326.62 5.78Q326.62 6.50 326.35 7.03Q326.07 7.57 325.74 7.81Q325.42 8.05 325.14 8.22Q324.87 8.40 324.87 8.46L324.87 8.46Q324.87 8.62 326.05 10.27Q327.22 11.91 327.66 12.38L327.66 12.38Q328.19 13.03 328.94 13.03L328.94 13.03Q329.14 13.03 329.14 13.20L329.14 13.20Q329.14 13.41 328.97 13.48Q328.80 13.55 328.10 13.55L328.10 13.55Q327.45 13.55 326.90 13.23L326.90 13.23Q326.20 12.82 324.53 10.09L324.53 10.09Q324.44 9.94 324.39 9.87L324.39 9.87Q323.72 8.78 323.36 8.78L323.36 8.78L323.06 8.78L322.21 8.78Q322.04 8.78 322.01 8.92Q321.97 9.06 321.97 9.77L321.97 9.77Q321.97 10.44 321.97 10.88Q321.97 11.31 321.98 11.43Q321.99 11.55 321.99 11.63Q321.99 11.70 321.99 11.75L321.99 11.75Q321.99 12.32 322.25 12.63Q322.52 12.95 322.85 13.00Q323.18 13.05 323.44 13.11Q323.71 13.17 323.71 13.31L323.71 13.31Q323.71 13.54 323.46 13.54L323.46 13.54Q323.44 13.54 322.49 13.49Q321.54 13.44 321.45 13.44L321.45 13.44Q321.05 13.44 320.49 13.47Q319.93 13.50 319.91 13.50L319.91 13.50Q319.62 13.50 319.62 13.27L319.62 13.27Q319.62 13.12 319.80 13.05Q319.98 12.99 320.21 12.96Q320.43 12.94 320.61 12.66Q320.80 12.38 320.80 11.86L320.80 11.86Q320.80 11.49 320.80 9.90Q320.81 8.30 320.81 7.45L320.81 7.45Q320.81 6.58 320.80 5.86Q320.80 5.14 320.80 5.08L320.80 5.08Q320.80 4.56 320.59 4.29Q320.38 4.02 320.12 3.98Q319.86 3.95 319.65 3.89Q319.44 3.84 319.44 3.70ZM321.97 5.54L321.97 5.94Q321.97 7.38 321.99 7.72Q322.00 8.06 322.08 8.12L322.08 8.12Q322.29 8.25 322.69 8.25L322.69 8.25L322.83 8.25L323.23 8.25Q324.42 8.25 324.93 7.70Q325.44 7.15 325.44 6.30L325.44 6.30Q325.44 5.43 324.76 4.72Q324.09 4.00 322.71 4.00L322.71 4.00Q322.20 4.00 322.08 4.28Q321.97 4.55 321.97 5.54L321.97 5.54Z"></path></g></svg>